<svg width="23" height="17" viewBox="0 0 23 17" fill="none" xmlns="http://www.w3.org/2000/svg">
<path d="M21.7826 5.93509C21.9465 5.80482 22.1902 5.92669 22.1902 6.13259V14.7261C22.1902 15.8397 21.2868 16.7432 20.1732 16.7432H2.69199C1.57841 16.7432 0.674934 15.8397 0.674934 14.7261V6.1368C0.674934 5.92669 0.91446 5.80902 1.08255 5.93929C2.02384 6.67048 3.2719 7.59917 7.55815 10.713C8.44482 11.3601 9.94081 12.7217 11.4326 12.7133C12.9328 12.7259 14.4582 11.3349 15.3112 10.713C19.5975 7.59917 20.8413 6.66628 21.7826 5.93509ZM11.4326 11.3643C12.4075 11.3812 13.811 10.1373 14.517 9.62463C20.0933 5.5779 20.5178 5.22492 21.8036 4.21639C22.0474 4.02729 22.1902 3.73313 22.1902 3.42217V2.62375C22.1902 1.51016 21.2868 0.606689 20.1732 0.606689H2.69199C1.57841 0.606689 0.674934 1.51016 0.674934 2.62375V3.42217C0.674934 3.73313 0.817809 4.02309 1.06154 4.21639C2.34741 5.22071 2.77184 5.5779 8.34817 9.62463C9.05414 10.1373 10.4577 11.3812 11.4326 11.3643Z" fill="white"/>
</svg>
