<svg width="17" height="23" viewBox="0 0 17 23" fill="none" xmlns="http://www.w3.org/2000/svg">
<path d="M7.61548 21.9855C1.59824 13.134 0.481331 12.2256 0.481331 8.97254C0.481331 4.51656 4.04124 0.904297 8.43264 0.904297C12.824 0.904297 16.384 4.51656 16.384 8.97254C16.384 12.2256 15.267 13.134 9.2498 21.9855C8.85493 22.5643 8.01031 22.5643 7.61548 21.9855ZM8.43264 12.3343C10.2624 12.3343 11.7457 10.8292 11.7457 8.97254C11.7457 7.11588 10.2624 5.61077 8.43264 5.61077C6.60289 5.61077 5.1196 7.11588 5.1196 8.97254C5.1196 10.8292 6.60289 12.3343 8.43264 12.3343Z" fill="white"/>
</svg>
