<svg width="16" height="16" viewBox="0 0 16 16" fill="none" xmlns="http://www.w3.org/2000/svg">
<path d="M8.26364 0.698486C4.17822 0.699227 0.854462 4.02299 0.854462 8.10841C0.854462 12.1938 4.17822 15.5176 8.26438 15.5176C12.3491 15.5176 15.6728 12.1938 15.6736 8.10841C15.6736 4.02299 12.3498 0.699227 8.26364 0.698486V0.698486ZM8.26438 14.0358C4.99545 14.0358 2.3363 11.3766 2.3363 8.10841C2.3363 4.84022 4.99545 2.18106 8.26364 2.18032C11.5326 2.18106 14.1917 4.84022 14.1917 8.10841C14.191 11.3766 11.5318 14.0358 8.26438 14.0358Z" fill="#505050"/>
<path d="M8.26436 7.36756H5.30069V8.84939H8.26436V11.0766L11.2317 8.10921L8.26436 5.14258V7.36756Z" fill="#505050"/>
</svg>
