<svg width="25" height="26" viewBox="0 0 25 26" fill="none" xmlns="http://www.w3.org/2000/svg">
<path d="M19.0117 24.0977L20.9634 20.3246C21.1752 19.9146 21.0621 19.4091 20.6988 19.1271L16.8541 16.1712C16.5177 15.9125 16.0467 15.907 15.7064 16.1609L13.196 18.008C10.5939 15.863 8.75471 12.8082 8.11235 9.42705L10.9384 8.11264C11.3255 7.93235 11.5459 7.52044 11.4807 7.10113L10.7352 2.30908C10.6596 1.85014 10.2705 1.50818 9.8092 1.49692L5.56244 1.39599C5.12135 1.38581 4.72587 1.67898 4.61436 2.11468C2.08712 11.9891 8.03609 22.0528 17.926 24.584C18.3578 24.6945 18.8078 24.4933 19.0117 24.0977Z" fill="white"/>
</svg>
